<svg width="512" height="512" viewBox="0 0 512 512" xmlns="http://www.w3.org/2000/svg" xmlns:xlink="http://www.w3.org/1999/xlink">
    <path id="gatsby-starter-stripe-MART" fill="#000000" fill-rule="evenodd" stroke="none" d="M 43.1875 474.699219 L 43.1875 395.074219 L 64.625 395.074219 L 85.078125 452.824219 L 105.421875 395.074219 L 126.96875 395.074219 L 126.96875 474.699219 L 110.507813 474.699219 L 110.507813 452.933594 L 112.148438 415.363281 L 90.65625 474.699219 L 79.390625 474.699219 L 57.953125 415.417969 L 59.59375 452.933594 L 59.59375 474.699219 L 43.1875 474.699219 Z M 171.394531 474.699219 L 201.035156 395.074219 L 216.238281 395.074219 L 246.042969 474.699219 L 228.597656 474.699219 L 223.074219 458.292969 L 194.308594 458.292969 L 188.839844 474.699219 L 171.394531 474.699219 Z M 289.320313 474.699219 L 289.320313 395.074219 L 318.90625 395.074219 C 328.312561 395.074219 335.567688 397.170685 340.671875 401.363281 C 345.776062 405.555908 348.328125 411.48056 348.328125 419.136719 C 348.328125 424.568909 347.152344 429.098938 344.800781 432.726563 C 342.449219 436.354187 338.885437 439.243469 334.109375 441.394531 L 351.335938 473.933594 L 351.335938 474.699219 L 333.726563 474.699219 L 318.796875 445.550781 L 305.726563 445.550781 L 305.726563 474.699219 L 289.320313 474.699219 Z M 413.042969 474.699219 L 413.042969 408.363281 L 388.980469 408.363281 L 388.980469 395.074219 L 453.839844 395.074219 L 453.839844 408.363281 L 429.449219 408.363281 L 429.449219 474.699219 L 413.042969 474.699219 Z M 198.738281 445.003906 L 218.644531 445.003906 L 208.636719 415.199219 L 198.738281 445.003906 Z M 305.726563 432.261719 L 318.960938 432.261719 C 323.08075 432.261719 326.270813 431.213562 328.53125 429.117188 C 330.791687 427.020813 331.921875 424.131531 331.921875 420.449219 C 331.921875 416.694 330.855469 413.740906 328.722656 411.589844 C 326.589844 409.438782 323.317719 408.363281 318.90625 408.363281 L 305.726563 408.363281 L 305.726563 432.261719 Z M 319.369141 379.550781 L 319.369141 297.628906 L 325.439453 297.628906 L 325.767578 305.996094 C 330.033234 299.688782 336.21286 296.535156 344.306641 296.535156 C 351.379608 296.535156 356.930328 299.214813 360.958984 304.574219 C 364.98764 309.933624 367.001953 317.371277 367.001953 326.886719 L 367.001953 327.816406 C 367.001953 337.040161 364.960297 344.359344 360.876953 349.773438 C 356.79361 355.187531 351.324921 357.894531 344.470703 357.894531 C 336.376923 357.894531 330.179077 355.050812 325.876953 349.363281 L 325.876953 379.550781 L 319.369141 379.550781 Z M 67.648438 357.894531 C 60.75787 357.894531 55.170547 356.226563 50.886719 352.890625 C 46.60289 349.554688 44.460938 345.334656 44.460938 340.230469 L 51.023438 340.230469 C 51.278648 344.058594 52.89196 347.039063 55.863281 349.171875 C 58.834606 351.304688 62.763042 352.371094 67.648438 352.371094 C 72.205658 352.371094 75.888008 351.3685 78.695313 349.363281 C 81.502617 347.358063 82.90625 344.824219 82.90625 341.761719 C 82.90625 338.516907 81.602875 335.910156 78.996094 333.941406 C 76.389313 331.972656 72.460876 330.432312 67.210938 329.320313 C 61.960957 328.208313 57.886688 326.932312 54.988281 325.492188 C 52.089874 324.052063 49.938808 322.292969 48.535156 320.214844 C 47.131504 318.136719 46.429688 315.621094 46.429688 312.667969 C 46.429688 308.001282 48.380234 304.145844 52.28125 301.101563 C 56.182266 298.057251 61.177147 296.535156 67.265625 296.535156 C 73.864525 296.535156 79.160225 298.166626 83.152344 301.429688 C 87.144463 304.692719 89.140625 308.949188 89.140625 314.199219 L 82.578125 314.199219 C 82.578125 310.735657 81.128922 307.855469 78.230469 305.558594 C 75.332016 303.261719 71.67701 302.113281 67.265625 302.113281 C 62.963566 302.113281 59.509083 303.070313 56.902344 304.984375 C 54.295605 306.898438 52.992188 309.386719 52.992188 312.449219 C 52.992188 315.402344 54.076859 317.690094 56.246094 319.3125 C 58.415329 320.934906 62.371159 322.420563 68.113281 323.769531 C 73.855408 325.1185 78.157539 326.558594 81.019531 328.089844 C 83.881523 329.621094 86.005203 331.462219 87.390625 333.613281 C 88.776047 335.764343 89.46875 338.371094 89.46875 341.433594 C 89.46875 346.428406 87.454353 350.420532 83.425781 353.410156 C 79.397209 356.39975 74.137962 357.894531 67.648438 357.894531 Z M 149.759766 357.894531 C 145.275375 357.894531 142.01239 356.591156 139.970703 353.984375 C 137.929031 351.377594 136.908203 347.540405 136.908203 342.472656 L 136.908203 302.988281 L 126.025391 302.988281 L 126.025391 297.628906 L 136.908203 297.628906 L 136.908203 282.480469 L 143.470703 282.480469 L 143.470703 297.628906 L 155.720703 297.628906 L 155.720703 302.988281 L 143.470703 302.988281 L 143.470703 342.417969 C 143.470703 345.699219 144.063156 348.141907 145.248047 349.746094 C 146.432953 351.350281 148.410797 352.152344 151.181641 352.152344 C 152.275406 352.152344 154.04361 351.970032 156.486328 351.605469 L 156.759766 356.964844 C 155.046219 357.584656 152.712906 357.894531 149.759766 357.894531 Z M 433.529297 357.894531 C 428.498016 357.894531 423.94989 356.654968 419.884766 354.175781 C 415.819641 351.696594 412.656921 348.242188 410.396484 343.8125 C 408.136078 339.382782 407.005859 334.415405 407.005859 328.910156 L 407.005859 326.558594 C 407.005859 320.871063 408.108734 315.748718 410.314453 311.191406 C 412.520203 306.634094 415.591797 303.052094 419.529297 300.445313 C 423.466827 297.838531 427.732422 296.535156 432.326172 296.535156 C 439.508514 296.535156 445.205078 298.986938 449.416016 303.890625 C 453.626984 308.794312 455.732422 315.493683 455.732422 323.988281 L 455.732422 327.652344 L 413.513672 327.652344 L 413.513672 328.910156 C 413.513672 335.61853 415.436829 341.205688 419.283203 345.671875 C 423.129578 350.138062 427.969391 352.371094 433.802734 352.371094 C 437.302765 352.371094 440.392578 351.733093 443.072266 350.457031 C 445.751984 349.180969 448.185547 347.139343 450.373047 344.332031 L 454.474609 347.449219 C 449.662109 354.412781 442.680389 357.894531 433.529297 357.894531 Z M 198.404297 356.800781 L 198.404297 297.628906 L 204.802734 297.628906 L 204.912109 307.035156 C 208.375656 300.035126 213.935715 296.535156 221.591797 296.535156 C 223.414719 296.535156 224.854813 296.772125 225.912109 297.246094 L 225.748047 303.207031 C 224.362625 302.951813 222.886078 302.824219 221.318359 302.824219 C 217.235001 302.824219 213.780609 303.963531 210.955078 306.242188 C 208.129532 308.520844 206.115234 311.829407 204.912109 316.167969 L 204.912109 356.800781 L 198.404297 356.800781 Z M 265.96875 356.800781 L 265.96875 297.628906 L 272.53125 297.628906 L 272.53125 356.800781 L 265.96875 356.800781 Z M 342.939453 352.371094 C 348.444702 352.371094 352.73761 350.1745 355.818359 345.78125 C 358.899109 341.388 360.439453 335.016724 360.439453 326.667969 C 360.439453 319.121033 358.889984 313.160156 355.791016 308.785156 C 352.692047 304.410126 348.371765 302.222656 342.830078 302.222656 C 338.819641 302.222656 335.374359 303.188782 332.494141 305.121094 C 329.613922 307.053406 327.408203 309.860657 325.876953 313.542969 L 325.876953 341.925781 C 327.444672 345.316406 329.686829 347.904938 332.603516 349.691406 C 335.520203 351.477875 338.965485 352.371094 342.939453 352.371094 Z M 413.732422 322.074219 L 449.224609 322.074219 L 449.224609 321.363281 C 449.042328 315.675751 447.419952 311.045593 444.357422 307.472656 C 441.294922 303.899719 437.284546 302.113281 432.326172 302.113281 C 427.404297 302.113281 423.257202 303.917969 419.884766 307.527344 C 416.51236 311.136719 414.461609 315.985657 413.732422 322.074219 Z M 269.304688 284.886719 C 267.91925 284.886719 266.825531 284.467468 266.023438 283.628906 C 265.221344 282.790344 264.820313 281.751312 264.820313 280.511719 C 264.820313 279.272125 265.221344 278.223938 266.023438 277.367188 C 266.825531 276.510406 267.91925 276.082031 269.304688 276.082031 C 270.690125 276.082031 271.792969 276.510406 272.613281 277.367188 C 273.433594 278.223938 273.84375 279.272125 273.84375 280.511719 C 273.84375 281.751312 273.433594 282.790344 272.613281 283.628906 C 271.792969 284.467468 270.690125 284.886719 269.304688 284.886719 Z M 71.597656 239.994141 C 64.707047 239.994141 59.119789 238.326202 54.835938 234.990234 C 50.552086 231.654297 48.410156 227.434265 48.410156 222.330078 L 54.972656 222.330078 C 55.227863 226.158234 56.841152 229.138672 59.8125 231.271484 C 62.783844 233.404327 66.712265 234.470703 71.597656 234.470703 C 76.15493 234.470703 79.837227 233.468109 82.644531 231.462891 C 85.451843 229.457672 86.855469 226.923859 86.855469 223.861328 C 86.855469 220.616516 85.552101 218.009796 82.945313 216.041016 C 80.338531 214.072266 76.410141 212.531921 71.160156 211.419922 C 65.910179 210.307953 61.83593 209.031921 58.9375 207.591797 C 56.03907 206.151703 53.888027 204.392609 52.484375 202.314453 C 51.080723 200.236328 50.378906 197.720734 50.378906 194.767578 C 50.378906 190.100891 52.32943 186.245453 56.230469 183.201172 C 60.131508 180.156891 65.12632 178.634766 71.214844 178.634766 C 77.813789 178.634766 83.109406 180.266266 87.101563 183.529297 C 91.093727 186.792328 93.089844 191.048798 93.089844 196.298828 L 86.527344 196.298828 C 86.527344 192.835266 85.07814 189.955109 82.179688 187.658203 C 79.281242 185.361328 75.626282 184.212891 71.214844 184.212891 C 66.912788 184.212891 63.458324 185.169922 60.851563 187.083984 C 58.244801 188.998077 56.941406 191.486328 56.941406 194.548828 C 56.941406 197.501984 58.026054 199.789703 60.195313 201.412109 C 62.364571 203.034515 66.320328 204.520172 72.0625 205.869141 C 77.804672 207.218109 82.106758 208.658203 84.96875 210.189453 C 87.83075 211.720703 89.954422 213.561859 91.339844 215.712891 C 92.725273 217.863953 93.417969 220.470703 93.417969 223.533203 C 93.417969 228.528015 91.403625 232.520172 87.375 235.509766 C 83.346382 238.499359 78.087227 239.994141 71.597656 239.994141 Z M 141.390625 239.994141 C 136.906235 239.994141 133.643234 238.690765 131.601563 236.083984 C 129.559875 233.477203 128.539063 229.640015 128.539063 224.572266 L 128.539063 185.087891 L 117.65625 185.087891 L 117.65625 179.728516 L 128.539063 179.728516 L 128.539063 164.580078 L 135.101563 164.580078 L 135.101563 179.728516 L 147.351563 179.728516 L 147.351563 185.087891 L 135.101563 185.087891 L 135.101563 224.517578 C 135.101563 227.798859 135.694 230.241547 136.878906 231.845703 C 138.063812 233.44989 140.041656 234.251953 142.8125 234.251953 C 143.90625 234.251953 145.674469 234.069672 148.117188 233.705078 L 148.390625 239.064453 C 146.677078 239.684265 144.343765 239.994141 141.390625 239.994141 Z M 193.738281 239.994141 C 188.050751 239.994141 183.447937 238.408234 179.929688 235.236328 C 176.411438 232.064453 174.652344 228.054077 174.652344 223.205078 C 174.652344 217.444641 177.049454 212.88739 181.84375 209.533203 C 186.638046 206.179016 193.319092 204.501953 201.886719 204.501953 L 213.753906 204.501953 L 213.753906 197.775391 C 213.753906 193.546204 212.450531 190.219421 209.84375 187.794922 C 207.236969 185.370422 203.436218 184.158203 198.441406 184.158203 C 193.884094 184.158203 190.110687 185.32486 187.121094 187.658203 C 184.131485 189.991547 182.636719 192.798828 182.636719 196.080078 L 176.074219 196.025391 C 176.074219 191.322235 178.261688 187.248077 182.636719 183.802734 C 187.011734 180.357422 192.389282 178.634766 198.769531 178.634766 C 205.368515 178.634766 210.572891 180.284485 214.382813 183.583984 C 218.192719 186.883484 220.152344 191.486298 220.261719 197.392578 L 220.261719 225.392578 C 220.261719 231.116577 220.863266 235.400391 222.066406 238.244141 L 222.066406 238.900391 L 215.066406 238.900391 C 214.410156 237.041016 213.990891 234.288422 213.808594 230.642578 C 211.511703 233.632172 208.585953 235.938141 205.03125 237.560547 C 201.476547 239.182953 197.71225 239.994141 193.738281 239.994141 Z M 328.181641 239.994141 C 323.697235 239.994141 320.434265 238.690765 318.392578 236.083984 C 316.350922 233.477203 315.330078 229.640015 315.330078 224.572266 L 315.330078 185.087891 L 304.447266 185.087891 L 304.447266 179.728516 L 315.330078 179.728516 L 315.330078 164.580078 L 321.892578 164.580078 L 321.892578 179.728516 L 334.142578 179.728516 L 334.142578 185.087891 L 321.892578 185.087891 L 321.892578 224.517578 C 321.892578 227.798859 322.485016 230.241547 323.669922 231.845703 C 324.854828 233.44989 326.832672 234.251953 329.603516 234.251953 C 330.697266 234.251953 332.465485 234.069672 334.908203 233.705078 L 335.181641 239.064453 C 333.468109 239.684265 331.134796 239.994141 328.181641 239.994141 Z M 387.417969 239.994141 C 382.386688 239.994141 377.838562 238.754578 373.773438 236.275391 C 369.708313 233.796204 366.545563 230.341827 364.285156 225.912109 C 362.024719 221.482391 360.894531 216.515015 360.894531 211.009766 L 360.894531 208.658203 C 360.894531 202.970673 361.997375 197.848328 364.203125 193.291016 C 366.408844 188.733704 369.480438 185.151703 373.417969 182.544922 C 377.355469 179.938141 381.621063 178.634766 386.214844 178.634766 C 393.397156 178.634766 399.093719 181.086578 403.304688 185.990234 C 407.515625 190.893921 409.621094 197.593048 409.621094 206.087891 L 409.621094 209.751953 L 367.402344 209.751953 L 367.402344 211.009766 C 367.402344 217.71814 369.3255 223.305328 373.171875 227.771484 C 377.01825 232.237671 381.858032 234.470703 387.691406 234.470703 C 391.191406 234.470703 394.281219 233.832703 396.960938 232.556641 C 399.640625 231.280609 402.074188 229.238953 404.261719 226.431641 L 408.363281 229.548828 C 403.550751 236.512421 396.569031 239.994141 387.417969 239.994141 Z M 254.505859 238.900391 L 254.505859 179.728516 L 260.904297 179.728516 L 261.013672 189.134766 C 264.477234 182.134735 270.037079 178.634766 277.693359 178.634766 C 279.516266 178.634766 280.95636 178.871735 282.013672 179.345703 L 281.849609 185.306641 C 280.464172 185.051422 278.98764 184.923828 277.419922 184.923828 C 273.336548 184.923828 269.882172 186.063141 267.056641 188.341797 C 264.23111 190.620453 262.216797 193.929016 261.013672 198.267578 L 261.013672 238.900391 L 254.505859 238.900391 Z M 439.164063 238.900391 L 439.164063 179.728516 L 445.5625 179.728516 L 445.671875 189.134766 C 449.135437 182.134735 454.695282 178.634766 462.351563 178.634766 C 464.1745 178.634766 465.614563 178.871735 466.671875 179.345703 L 466.507813 185.306641 C 465.122375 185.051422 463.645844 184.923828 462.078125 184.923828 C 457.994781 184.923828 454.540375 186.063141 451.714844 188.341797 C 448.889313 190.620453 446.875 193.929016 445.671875 198.267578 L 445.671875 238.900391 L 439.164063 238.900391 Z M 194.503906 234.197266 C 198.878922 234.197266 202.789047 233.139984 206.234375 231.025391 C 209.679703 228.910797 212.186188 226.085297 213.753906 222.548828 L 213.753906 209.533203 L 202.050781 209.533203 C 195.524704 209.60614 190.420593 210.80011 186.738281 213.115234 C 183.055969 215.430359 181.214844 218.611328 181.214844 222.658203 C 181.214844 225.975922 182.445297 228.728516 184.90625 230.916016 C 187.367203 233.103546 190.566391 234.197266 194.503906 234.197266 Z M 367.621094 204.173828 L 403.113281 204.173828 L 403.113281 203.462891 C 402.930969 197.77536 401.308594 193.145203 398.246094 189.572266 C 395.183563 185.999329 391.173187 184.212891 386.214844 184.212891 C 381.292938 184.212891 377.145844 186.017578 373.773438 189.626953 C 370.401001 193.236359 368.35025 198.085266 367.621094 204.173828 Z M 428.103516 144.898438 C 426.535797 144.898438 424.858734 144.643219 423.072266 144.132813 L 423.017578 138.71875 L 426.408203 139.046875 C 429.616547 139.046875 432.214172 138.253906 434.201172 136.667969 C 436.188171 135.082031 437.874359 132.356781 439.259766 128.492188 L 442.158203 120.507813 L 419.845703 61.828125 L 427.009766 61.828125 L 445.384766 111.59375 L 462.666016 61.828125 L 469.720703 61.828125 L 444.455078 131.0625 L 443.142578 134.125 C 439.897766 141.307343 434.884796 144.898438 428.103516 144.898438 Z M 65.273438 144.570313 C 61.153633 144.570313 57.225277 143.64975 53.488281 141.808594 C 49.751286 139.967438 46.807301 137.515656 44.65625 134.453125 L 48.320313 130.515625 C 52.950539 136.203156 58.455708 139.046875 64.835938 139.046875 C 70.30471 139.046875 74.570297 137.433624 77.632813 134.207031 C 80.695328 130.980438 82.281242 126.505249 82.390625 120.78125 L 82.390625 113.34375 C 78.197899 119.177124 72.091179 122.09375 64.070313 122.09375 C 57.216122 122.09375 51.710953 119.359406 47.554688 113.890625 C 43.398422 108.421844 41.320313 101.039124 41.320313 91.742188 L 41.320313 90.867188 C 41.320313 81.60672 43.371078 74.269562 47.472656 68.855469 C 51.574234 63.441376 57.143204 60.734375 64.179688 60.734375 C 72.237015 60.734375 78.361961 63.942688 82.554688 70.359375 L 82.882813 61.828125 L 89.007813 61.828125 L 89.007813 119.796875 C 89.007813 127.416718 86.875008 133.4505 82.609375 137.898438 C 78.343735 142.346375 72.56514 144.570313 65.273438 144.570313 Z M 143.373047 122.09375 C 137.685516 122.09375 133.082687 120.507843 129.564453 117.335938 C 126.046204 114.164032 124.287109 110.153656 124.287109 105.304688 C 124.287109 99.54425 126.684235 94.987 131.478516 91.632813 C 136.272812 88.278625 142.953766 86.601563 151.521484 86.601563 L 163.388672 86.601563 L 163.388672 79.875 C 163.388672 75.645813 162.085297 72.319031 159.478516 69.894531 C 156.871735 67.470032 153.070984 66.257813 148.076172 66.257813 C 143.51886 66.257813 139.745453 67.424469 136.755859 69.757813 C 133.766251 72.091156 132.271484 74.898407 132.271484 78.179688 L 125.708984 78.125 C 125.708984 73.421844 127.896477 69.347687 132.271484 65.902344 C 136.6465 62.457001 142.024048 60.734375 148.404297 60.734375 C 155.003281 60.734375 160.207657 62.384094 164.017578 65.683594 C 167.827484 68.983093 169.787109 73.585907 169.896484 79.492188 L 169.896484 107.492188 C 169.896484 113.216187 170.498032 117.5 171.701172 120.34375 L 171.701172 121 L 164.701172 121 C 164.044922 119.140625 163.625656 116.388031 163.443359 112.742188 C 161.146469 115.731781 158.220718 118.03775 154.666016 119.660156 C 151.111313 121.282562 147.347015 122.09375 143.373047 122.09375 Z M 225.083984 122.09375 C 220.599579 122.09375 217.336594 120.790375 215.294922 118.183594 C 213.25325 115.576813 212.232422 111.739594 212.232422 106.671875 L 212.232422 67.1875 L 201.349609 67.1875 L 201.349609 61.828125 L 212.232422 61.828125 L 212.232422 46.679688 L 218.794922 46.679688 L 218.794922 61.828125 L 231.044922 61.828125 L 231.044922 67.1875 L 218.794922 67.1875 L 218.794922 106.617188 C 218.794922 109.898468 219.38736 112.341125 220.572266 113.945313 C 221.757172 115.5495 223.735016 116.351563 226.505859 116.351563 C 227.599609 116.351563 229.367828 116.169281 231.810547 115.804688 L 232.083984 121.164063 C 230.370438 121.783844 228.037125 122.09375 225.083984 122.09375 Z M 286.066406 122.09375 C 279.175751 122.09375 273.588562 120.425812 269.304688 117.089844 C 265.020813 113.753876 262.878906 109.533875 262.878906 104.429688 L 269.441406 104.429688 C 269.696625 108.257843 271.309875 111.238281 274.28125 113.371094 C 277.252625 115.503906 281.180969 116.570313 286.066406 116.570313 C 290.623718 116.570313 294.305969 115.567719 297.113281 113.5625 C 299.920593 111.557281 301.324219 109.023468 301.324219 105.960938 C 301.324219 102.716125 300.020844 100.109375 297.414063 98.140625 C 294.807281 96.171875 290.878937 94.631531 285.628906 93.519531 C 280.378876 92.407532 276.304688 91.131531 273.40625 89.691406 C 270.507813 88.251282 268.356781 86.492188 266.953125 84.414063 C 265.549469 82.335938 264.847656 79.820313 264.847656 76.867188 C 264.847656 72.2005 266.798157 68.345062 270.699219 65.300781 C 274.600281 62.2565 279.595032 60.734375 285.683594 60.734375 C 292.282593 60.734375 297.578094 62.365875 301.570313 65.628906 C 305.562531 68.891937 307.558594 73.148407 307.558594 78.398438 L 300.996094 78.398438 C 300.996094 74.934875 299.546875 72.054688 296.648438 69.757813 C 293.75 67.460938 290.095062 66.3125 285.683594 66.3125 C 281.3815 66.3125 277.927094 67.269531 275.320313 69.183594 C 272.713531 71.097656 271.410156 73.585907 271.410156 76.648438 C 271.410156 79.601563 272.494781 81.889313 274.664063 83.511719 C 276.833344 85.134125 280.789032 86.619781 286.53125 87.96875 C 292.273468 89.317719 296.5755 90.757813 299.4375 92.289063 C 302.2995 93.820313 304.423157 95.661438 305.808594 97.8125 C 307.194031 99.963562 307.886719 102.570282 307.886719 105.632813 C 307.886719 110.627625 305.872406 114.619781 301.84375 117.609375 C 297.815094 120.598969 292.55603 122.09375 286.066406 122.09375 Z M 368.923828 122.09375 C 360.684204 122.09375 354.44989 119.031281 350.220703 112.90625 L 349.947266 121 L 343.822266 121 L 343.822266 37 L 350.330078 37 L 350.330078 70.414063 C 354.486359 63.960907 360.647736 60.734375 368.814453 60.734375 C 375.814484 60.734375 381.346985 63.404907 385.412109 68.746094 C 389.477234 74.08728 391.509766 81.515564 391.509766 91.03125 L 391.509766 92.015625 C 391.509766 101.239624 389.468109 108.558563 385.384766 113.972656 C 381.301422 119.386749 375.814484 122.09375 368.923828 122.09375 Z M 65.273438 116.40625 C 73.330765 116.40625 79.036438 112.796906 82.390625 105.578125 L 82.390625 78.070313 C 80.859367 74.278625 78.653656 71.389343 75.773438 69.402344 C 72.893211 67.415344 69.429703 66.421875 65.382813 66.421875 C 59.877583 66.421875 55.593761 68.582001 52.53125 72.902344 C 49.468739 77.222687 47.9375 83.593719 47.9375 92.015625 C 47.9375 99.562531 49.450508 105.514313 52.476563 109.871094 C 55.502617 114.227875 59.768208 116.40625 65.273438 116.40625 Z M 367.720703 116.40625 C 373.116577 116.40625 377.336578 114.273468 380.380859 110.007813 C 383.42514 105.742157 384.947266 99.36203 384.947266 90.867188 C 384.947266 83.065063 383.434265 77.040375 380.408203 72.792969 C 377.382141 68.545563 373.116577 66.421875 367.611328 66.421875 C 363.41861 66.421875 359.863953 67.451813 356.947266 69.511719 C 354.030579 71.571625 351.82489 74.588531 350.330078 78.5625 L 350.330078 105.25 C 353.611359 112.687531 359.408173 116.40625 367.720703 116.40625 Z M 144.138672 116.296875 C 148.513687 116.296875 152.423813 115.239594 155.869141 113.125 C 159.314468 111.010406 161.820953 108.184906 163.388672 104.648438 L 163.388672 91.632813 L 151.685547 91.632813 C 145.15947 91.705719 140.055359 92.899719 136.373047 95.214844 C 132.690735 97.529968 130.849609 100.710907 130.849609 104.757813 C 130.849609 108.075531 132.080063 110.828125 134.541016 113.015625 C 137.001968 115.203125 140.201157 116.296875 144.138672 116.296875 Z"/>
</svg>
