<svg width="600" height="300" viewBox="0 0 600 300" xmlns="http://www.w3.org/2000/svg" xmlns:xlink="http://www.w3.org/1999/xlink">
    <path id="stripe-MART" fill="#000000" fill-rule="evenodd" stroke="none" d="M 73.140625 294.900391 L 73.140625 192.525391 L 100.703125 192.525391 L 127 266.775391 L 153.15625 192.525391 L 180.859375 192.525391 L 180.859375 294.900391 L 159.695313 294.900391 L 159.695313 266.916016 L 161.804688 218.611328 L 134.171875 294.900391 L 119.6875 294.900391 L 92.125 218.681641 L 94.234375 266.916016 L 94.234375 294.900391 L 73.140625 294.900391 Z M 213.498047 294.900391 L 251.607422 192.525391 L 271.154297 192.525391 L 309.474609 294.900391 L 287.044922 294.900391 L 279.943359 273.806641 L 242.958984 273.806641 L 235.927734 294.900391 L 213.498047 294.900391 Z M 340.636719 294.900391 L 340.636719 192.525391 L 378.675781 192.525391 C 390.769592 192.525391 400.097626 195.220703 406.660156 200.611328 C 413.222687 206.001938 416.503906 213.619125 416.503906 223.462891 C 416.503906 230.447266 414.992188 236.271484 411.96875 240.935547 C 408.945282 245.599609 404.363312 249.314453 398.222656 252.080078 L 420.371094 293.916016 L 420.371094 294.900391 L 397.730469 294.900391 L 378.535156 257.423828 L 361.730469 257.423828 L 361.730469 294.900391 L 340.636719 294.900391 Z M 475.230469 294.900391 L 475.230469 209.611328 L 444.292969 209.611328 L 444.292969 192.525391 L 527.683594 192.525391 L 527.683594 209.611328 L 496.324219 209.611328 L 496.324219 294.900391 L 475.230469 294.900391 Z M 248.654297 256.720703 L 274.248047 256.720703 L 261.380859 218.400391 L 248.654297 256.720703 Z M 361.730469 240.337891 L 378.746094 240.337891 C 384.042969 240.337891 388.144501 238.990234 391.050781 236.294922 C 393.957031 233.599594 395.410156 229.88475 395.410156 225.150391 C 395.410156 220.322281 394.039063 216.525406 391.296875 213.759766 C 388.554657 210.994125 384.347687 209.611328 378.675781 209.611328 L 361.730469 209.611328 L 361.730469 240.337891 Z M 361.197266 138.25 L 361.197266 32.921875 L 369.001953 32.921875 L 369.423828 43.679688 C 374.908234 35.570282 382.853455 31.515625 393.259766 31.515625 C 402.353577 31.515625 409.490204 34.960907 414.669922 41.851563 C 419.84964 48.742218 422.439453 58.304703 422.439453 70.539063 L 422.439453 71.734375 C 422.439453 83.593735 419.814484 93.003876 414.564453 99.964844 C 409.314423 106.925812 402.283264 110.40625 393.470703 110.40625 C 383.064392 110.40625 375.095734 106.750031 369.564453 99.4375 L 369.564453 138.25 L 361.197266 138.25 Z M 100.914063 110.40625 C 92.054649 110.40625 84.871117 108.261734 79.363281 103.972656 C 73.855446 99.683578 71.101563 94.257843 71.101563 87.695313 L 79.539063 87.695313 C 79.867188 92.617218 81.941391 96.449203 85.761719 99.191406 C 89.582047 101.933609 94.63279 103.304688 100.914063 103.304688 C 106.77346 103.304688 111.507797 102.01564 115.117188 99.4375 C 118.726578 96.85936 120.53125 93.601578 120.53125 89.664063 C 120.53125 85.492172 118.855484 82.14064 115.503906 79.609375 C 112.152328 77.07811 107.101585 75.097656 100.351563 73.667969 C 93.60154 72.238281 88.363297 70.597672 84.636719 68.746094 C 80.910141 66.894516 78.144539 64.632828 76.339844 61.960938 C 74.535149 59.289047 73.632813 56.054703 73.632813 52.257813 C 73.632813 46.257782 76.14061 41.300812 81.15625 37.386719 C 86.17189 33.472626 92.593719 31.515625 100.421875 31.515625 C 108.906288 31.515625 115.714828 33.613251 120.847656 37.808594 C 125.980484 42.003937 128.546875 47.476532 128.546875 54.226563 L 120.109375 54.226563 C 120.109375 49.773422 118.246109 46.070328 114.519531 43.117188 C 110.792953 40.164063 106.093773 38.6875 100.421875 38.6875 C 94.890602 38.6875 90.449234 39.917969 87.097656 42.378906 C 83.746078 44.839844 82.070313 48.039047 82.070313 51.976563 C 82.070313 55.773453 83.464828 58.714828 86.253906 60.800781 C 89.042984 62.886734 94.128876 64.79686 101.511719 66.53125 C 108.894562 68.26564 114.425766 70.117172 118.105469 72.085938 C 121.785172 74.054703 124.515617 76.42186 126.296875 79.1875 C 128.078125 81.95314 128.96875 85.304672 128.96875 89.242188 C 128.96875 95.664093 126.378922 100.79686 121.199219 104.640625 C 116.019516 108.48439 109.257843 110.40625 100.914063 110.40625 Z M 190.646484 110.40625 C 184.880829 110.40625 180.685547 108.730484 178.060547 105.378906 C 175.435532 102.027328 174.123047 97.093781 174.123047 90.578125 L 174.123047 39.8125 L 160.130859 39.8125 L 160.130859 32.921875 L 174.123047 32.921875 L 174.123047 13.445313 L 182.560547 13.445313 L 182.560547 32.921875 L 198.310547 32.921875 L 198.310547 39.8125 L 182.560547 39.8125 L 182.560547 90.507813 C 182.560547 94.726578 183.32225 97.867172 184.845703 99.929688 C 186.369141 101.992203 188.912079 103.023438 192.474609 103.023438 C 193.880859 103.023438 196.154282 102.789063 199.294922 102.320313 L 199.646484 109.210938 C 197.443344 110.007813 194.443375 110.40625 190.646484 110.40625 Z M 492.132813 110.40625 C 485.664032 110.40625 479.816437 108.812515 474.589844 105.625 C 469.363251 102.437485 465.296875 97.996124 462.390625 92.300781 C 459.484375 86.605438 458.03125 80.218781 458.03125 73.140625 L 458.03125 70.117188 C 458.03125 62.804657 459.449219 56.218781 462.285156 50.359375 C 465.121094 44.499969 469.070282 39.894562 474.132813 36.542969 C 479.195343 33.191376 484.679657 31.515625 490.585938 31.515625 C 499.820374 31.515625 507.144501 34.667938 512.558594 40.972656 C 517.972656 47.277374 520.679688 55.89064 520.679688 66.8125 L 520.679688 71.523438 L 466.398438 71.523438 L 466.398438 73.140625 C 466.398438 81.765594 468.871063 88.949188 473.816406 94.691406 C 478.761749 100.433624 484.984344 103.304688 492.484375 103.304688 C 496.984406 103.304688 500.957001 102.48439 504.402344 100.84375 C 507.847687 99.20311 510.976563 96.57814 513.789063 92.96875 L 519.0625 96.976563 C 512.875 105.929657 503.898499 110.40625 492.132813 110.40625 Z M 237.347656 109 L 237.347656 32.921875 L 245.574219 32.921875 L 245.714844 45.015625 C 250.167999 36.015594 257.316345 31.515625 267.160156 31.515625 C 269.503906 31.515625 271.355438 31.820313 272.714844 32.429688 L 272.503906 40.09375 C 270.722626 39.765625 268.824219 39.601563 266.808594 39.601563 C 261.558533 39.601563 257.117188 41.066406 253.484375 43.996094 C 249.851547 46.925797 247.261734 51.179657 245.714844 56.757813 L 245.714844 109 L 237.347656 109 Z M 308.378906 109 L 308.378906 32.921875 L 316.816406 32.921875 L 316.816406 109 L 308.378906 109 Z M 391.501953 103.304688 C 398.580109 103.304688 404.099609 100.480499 408.060547 94.832031 C 412.021515 89.183563 414.001953 80.992172 414.001953 70.257813 C 414.001953 60.554718 412.009796 52.890656 408.025391 47.265625 C 404.041016 41.640594 398.486359 38.828125 391.361328 38.828125 C 386.205048 38.828125 381.775421 40.070313 378.072266 42.554688 C 374.369141 45.039063 371.533234 48.648407 369.564453 53.382813 L 369.564453 89.875 C 371.580109 94.23439 374.462891 97.562485 378.212891 99.859375 C 381.962921 102.156265 386.392548 103.304688 391.501953 103.304688 Z M 466.679688 64.351563 L 512.3125 64.351563 L 512.3125 63.4375 C 512.078125 56.124969 509.992218 50.171906 506.054688 45.578125 C 502.117157 40.984344 496.960968 38.6875 490.585938 38.6875 C 484.257782 38.6875 478.925812 41.007782 474.589844 45.648438 C 470.253876 50.289093 467.617188 56.523468 466.679688 64.351563 Z M 312.667969 16.539063 C 310.886719 16.539063 309.480499 16 308.449219 14.921875 C 307.417969 13.84375 306.902344 12.507813 306.902344 10.914063 C 306.902344 9.320313 307.417969 7.972656 308.449219 6.871094 C 309.480499 5.769531 310.886719 5.21875 312.667969 5.21875 C 314.449249 5.21875 315.867188 5.769531 316.921875 6.871094 C 317.976593 7.972656 318.503906 9.320313 318.503906 10.914063 C 318.503906 12.507813 317.976593 13.84375 316.921875 14.921875 C 315.867188 16 314.449249 16.539063 312.667969 16.539063 Z"/>
</svg>
